#N canvas 112 211 450 300 10;
#X obj -123 107 noise~;
#X obj -123 135 samphold~;
#X obj -72 -31 bng 15 250 50 0 empty empty empty 17 7 0 10 -262144
-1 -1;
#X obj -124 201 *~;
#X obj -124 229 dac~;
#X msg 56 73 1 200;
#X obj 103 70 delay 1000;
#X msg 111 110 0 1500;
#X obj 49 141 vline~;
#X obj -72 68 vline~;
#X obj -72 -6 trigger bang bang bang;
#X obj -72 107 phasor~;
#X msg -72 37 820 0 \, 760 1500;
#X connect 0 0 1 0;
#X connect 1 0 3 0;
#X connect 2 0 10 0;
#X connect 3 0 4 0;
#X connect 3 0 4 1;
#X connect 5 0 8 0;
#X connect 6 0 7 0;
#X connect 7 0 8 0;
#X connect 8 0 3 1;
#X connect 9 0 11 0;
#X connect 10 0 12 0;
#X connect 10 1 5 0;
#X connect 10 2 6 0;
#X connect 11 0 1 1;
#X connect 12 0 9 0;
