#N canvas 532 192 483 375 10;
#X obj -120 174 noise~;
#X obj -120 203 samphold~;
#X obj 12 8 bng 15 250 50 0 empty empty empty 17 7 0 10 -262144 -1
-1;
#X obj -3 264 *~;
#X obj -69 83 *~ 100;
#X obj -69 174 phasor~;
#X obj 12 58 vline~;
#X obj -69 29 osc~ 6;
#X obj -4 301 dac~;
#X obj -69 133 +~ 2200;
#X msg 12 32 1 0 \, 0 250;
#X connect 0 0 1 0;
#X connect 1 0 3 0;
#X connect 2 0 10 0;
#X connect 3 0 8 0;
#X connect 3 0 8 1;
#X connect 4 0 9 0;
#X connect 5 0 1 1;
#X connect 6 0 3 1;
#X connect 7 0 4 0;
#X connect 9 0 5 0;
#X connect 10 0 6 0;
