#N canvas 0 85 1366 683 10;
#X obj -177 -111 r note;
#X obj -177 67 mtof;
#X obj -66 211 / 100;
#X obj -177 322 *~;
#X floatatom -143 7 5 0 0 0 - - -;
#X obj -177 268 clip~ -1 1;
#X obj -177 200 *~ 10000;
#X msg -66 240 \$1 10;
#X obj -177 -72 unpack 1 2 3;
#N canvas 0 22 450 278 (subpatch) 0;
#X array a5 2000 float 4;
#X coords 0 1 1999 -1 50 35 1 0 0;
#X restore 116 155 graph;
#X obj 42 369 tabwrite~ a5;
#X obj 42 345 threshold~;
#X obj 42 322 osc~ 15;
#X obj -177 352 *~ 0.5;
#X obj -115 -94 print note;
#X text -29 -115 qlist holds notes for Beep logo music;
#X text -253 267 square wave;
#X obj -177 131 osc~;
#X obj 170 157 vsl 20 30 36 50 0 0 empty empty empty 0 -9 0 10 -225280
-225280 -225280 1864 1;
#X floatatom -177 7 5 0 0 0 - - -;
#X obj -66 268 vline~;
#X obj 170 46 bng 15 250 50 0 empty empty empty 17 7 0 10 -262144 -1
-1;
#X obj 209 46 bng 15 250 50 0 empty empty empty 17 7 0 10 -262144 -1
-1;
#X obj 170 23 moses 1;
#X msg 170 87 color 7 \$1 \$1;
#X msg 170 65 7;
#X msg 210 66 2;
#X obj -30 -93 cnv 15 300 100 empty empty empty 20 12 0 14 -233017
-66577 0;
#X obj 69 -14 qlist;
#X obj 21 -62 bng 15 250 50 0 empty empty empty 17 7 0 10 -262144 -1
-1;
#X msg 69 -63 tempo 2;
#X obj 69 -90 loadbang;
#X msg 123 -31 print;
#N canvas 509 85 450 257 add 1;
#X obj 41 31 loadbang;
#X obj 41 213 outlet;
#X msg 41 63 add 0 note 38 100 0 \, add 240 note 38 0 0 \, add 480
note 38 100 0 \, add 240 note 38 0 0 \, add 480 note 48 100 0 \, add
240 note 48 0 0 \, add 240 note 47 100 0 \, add 240 note 47 0 0 \,
add 240 note 46 100 0 \, add 240 note 46 0 0 \, add 240 note 45 100
0 \, add 240 note 45 0 0 \, add 0 note 38 100 0 \, add 240 note 38
0 0 \, add 480 note 38 100 0 \, add 240 note 38 0 0 \, add 480 note
38 100 0 \, add 480 note 38 0 0 \, add 240 note 48 100 0 \, add 480
note 48 0 0 \, add 0 note 47 100 0 \, add 240 note 47 0 0 \, add 240
note 46 100 0 \, add 240 note 46 0 0 \, add 240 note 45 100 0 \, add
240 note 45 0 0 \,;
#X connect 0 0 2 0;
#X connect 2 0 1 0;
#X restore 176 -31 pd add notes;
#X text 175 -50 holds notes;
#X text -130 -51 ignore channel;
#X obj -177 386 dac~;
#X connect 0 0 8 0;
#X connect 0 0 14 0;
#X connect 1 0 17 0;
#X connect 2 0 7 0;
#X connect 3 0 13 0;
#X connect 4 0 2 0;
#X connect 4 0 23 0;
#X connect 5 0 3 0;
#X connect 6 0 5 0;
#X connect 7 0 20 0;
#X connect 8 0 18 0;
#X connect 8 0 19 0;
#X connect 8 1 4 0;
#X connect 11 0 10 0;
#X connect 12 0 11 0;
#X connect 13 0 10 0;
#X connect 13 0 36 0;
#X connect 13 0 36 1;
#X connect 17 0 6 0;
#X connect 19 0 1 0;
#X connect 20 0 3 1;
#X connect 21 0 25 0;
#X connect 22 0 26 0;
#X connect 23 0 21 0;
#X connect 23 1 22 0;
#X connect 24 0 18 0;
#X connect 25 0 24 0;
#X connect 26 0 24 0;
#X connect 29 0 28 0;
#X connect 30 0 28 0;
#X connect 31 0 30 0;
#X connect 32 0 28 0;
#X connect 33 0 28 0;
