#N canvas 0 85 1366 683 10;
#X obj -177 -111 r note;
#X obj -177 67 mtof;
#X obj -66 211 / 100;
#X obj -177 322 *~;
#X floatatom -143 7 5 0 0 0 - - -;
#X obj -177 268 clip~ -1 1;
#X msg -66 240 \$1 10;
#X obj -177 -72 unpack 1 2 3;
#N canvas 0 22 450 278 (subpatch) 0;
#X array a5 2000 float 4;
#X coords 0 1 1999 -1 50 35 1 0 0;
#X restore -50 155 graph;
#X obj 42 369 tabwrite~ a5;
#X obj 42 345 threshold~;
#X obj 42 322 osc~ 15;
#X obj -177 352 *~ 0.5;
#X obj -115 -94 print note;
#X text 223 83 qlist holds notes for Beep logo music;
#X text -253 267 square wave;
#X obj -177 131 osc~;
#X obj 4 157 vsl 20 30 36 50 0 0 empty empty empty 0 -9 0 10 -225280
-225280 -225280 2900 1;
#X floatatom -177 7 5 0 0 0 - - -;
#X obj -66 268 vline~;
#X obj 4 46 bng 15 250 50 0 empty empty empty 17 7 0 10 -262144 -1
-1;
#X obj 43 46 bng 15 250 50 0 empty empty empty 17 7 0 10 -262144 -1
-1;
#X obj 4 23 moses 1;
#X msg 4 87 color 7 \$1 \$1;
#X msg 4 65 7;
#X msg 44 66 2;
#X obj 222 105 cnv 15 300 100 empty empty empty 20 12 0 14 -233017
-66577 0;
#X obj 321 184 qlist;
#X obj 273 136 bng 15 250 50 0 empty empty empty 17 7 0 10 -262144
-1 -1;
#X msg 321 135 tempo 2;
#X obj 321 108 loadbang;
#X msg 380 133 print;
#N canvas 461 205 450 257 add 0;
#X obj 41 213 outlet;
#X obj 41 31 inlet;
#X msg 41 63 add 100 note \$1 100 0 \, add 150 note \$1 0 0 \, add
150 note \$2 100 0 \, add 150 note \$2 0 0 \, add 150 note \$3 100
0 \, add 150 note \$3 0 0 \, add 150 note \$4 100 0 \, add 150 note
\$4 0 0 \, add 150 note \$5 100 0 \, add 150 note \$5 0 0 \, add 150
note \$6 100 0 \, add 150 note \$6 0 0 \, add 150 note \$7 100 0 \,
add 150 note \$7 0 0 \, add 150 note \$8 100 0 \, add 150 note \$8
0 0 \,;
#X connect 1 0 2 0;
#X connect 2 0 0 0;
#X restore 428 167 pd add notes;
#X text 436 150 holds notes;
#X text -130 -51 ignore channel;
#X obj -177 386 dac~;
#X obj -177 200 *~ 10000;
#X msg 380 150 clear;
#X obj 428 111 bng 15 250 50 0 empty empty empty 17 7 0 10 -262144
-1 -1;
#N canvas 264 271 450 300 takes 0;
#X obj 14 10 inlet;
#X obj 14 274 outlet;
#X obj 25 35 delay 100;
#X obj 36 59 delay 100;
#X msg 14 183 74 77 81 74 81 77 74 81;
#X msg 25 201 70 74 77 70 77 74 70 74;
#X msg 36 222 72 76 79 76 79 76 72 76;
#X msg 47 241 77 79 81 77 76 74 72 69;
#X obj 47 81 delay 100;
#X connect 0 0 4 0;
#X connect 0 0 2 0;
#X connect 2 0 5 0;
#X connect 2 0 3 0;
#X connect 3 0 6 0;
#X connect 3 0 8 0;
#X connect 4 0 1 0;
#X connect 5 0 1 0;
#X connect 6 0 1 0;
#X connect 7 0 1 0;
#X connect 8 0 7 0;
#X restore 428 131 pd takes;
#X msg 380 167 rewind;
#X connect 0 0 7 0;
#X connect 0 0 13 0;
#X connect 1 0 16 0;
#X connect 2 0 6 0;
#X connect 3 0 12 0;
#X connect 4 0 2 0;
#X connect 4 0 22 0;
#X connect 5 0 3 0;
#X connect 6 0 19 0;
#X connect 7 0 17 0;
#X connect 7 0 18 0;
#X connect 7 1 4 0;
#X connect 10 0 9 0;
#X connect 11 0 10 0;
#X connect 12 0 9 0;
#X connect 12 0 35 0;
#X connect 12 0 35 1;
#X connect 16 0 36 0;
#X connect 18 0 1 0;
#X connect 19 0 3 1;
#X connect 20 0 24 0;
#X connect 21 0 25 0;
#X connect 22 0 20 0;
#X connect 22 1 21 0;
#X connect 23 0 17 0;
#X connect 24 0 23 0;
#X connect 25 0 23 0;
#X connect 28 0 27 0;
#X connect 29 0 27 0;
#X connect 30 0 29 0;
#X connect 31 0 27 0;
#X connect 32 0 27 0;
#X connect 36 0 5 0;
#X connect 37 0 27 0;
#X connect 38 0 39 0;
#X connect 39 0 32 0;
#X connect 40 0 27 0;
