#N canvas 122 275 450 300 10;
#X obj 195 37 inlet~;
#X obj 208 80 *~ 6000;
#X obj 202 135 osc~;
#X obj 200 182 outlet~;
#X obj 319 76 vsl 15 128 0 8000 0 0 empty empty empty 0 -9 0 10 -262144
-1 -1 3700 1;
#X connect 0 0 1 0;
#X connect 1 0 2 0;
#X connect 2 0 3 0;
#X connect 4 0 1 1;
#X coords 0 -1 1 1 60 160 1 300 50;
