#N canvas 0 85 1366 683 10;
#X obj -105 203 osc~;
#X obj -105 18 mtof;
#X msg 67 -32 0;
#X obj -105 227 *~;
#X obj 55 65 mtof;
#X obj 144 -99 bng 15 250 50 0 empty empty empty 17 7 0 10 -262144
-1 -1;
#X obj 33 219 threshold~;
#X obj 33 196 osc~ 15;
#N canvas 0 22 450 278 (subpatch) 0;
#X array a8 2000 float 4;
#X coords 0 1 1999 -1 50 35 1 0 0;
#X restore 116 154 graph;
#X obj 33 244 tabwrite~ a8;
#X obj 16 82 *~;
#X obj -105 121 +~;
#X text -89 -34 filtered sawtooth LFO;
#X text -208 203 sine at note #56;
#X text -84 102 low pass filter;
#X obj 144 48 vline~;
#X msg 144 22 1 0 \, 0 250;
#X obj -104 262 dac~;
#X obj 16 -6 phasor~ 4;
#X obj 16 104 lop~ 50;
#X msg 55 43 80;
#X msg -105 -84 90;
#X connect 0 0 3 0;
#X connect 1 0 11 0;
#X connect 2 0 18 1;
#X connect 3 0 9 0;
#X connect 3 0 17 0;
#X connect 3 0 17 1;
#X connect 4 0 10 1;
#X connect 5 0 16 0;
#X connect 5 0 2 0;
#X connect 5 0 20 0;
#X connect 5 0 21 0;
#X connect 6 0 9 0;
#X connect 7 0 6 0;
#X connect 10 0 19 0;
#X connect 11 0 0 0;
#X connect 15 0 3 1;
#X connect 16 0 15 0;
#X connect 18 0 10 0;
#X connect 19 0 11 1;
#X connect 20 0 4 0;
#X connect 21 0 1 0;
