#N canvas 577 205 575 527 10;
#X obj 136 217 phasor~;
#X obj 261 221 phasor~;
#X obj 137 174 sig~;
#X obj 261 175 sig~;
#X obj 140 142 nbx 5 14 -1e+37 1e+37 0 0 empty empty empty 0 -8 0 10
-262144 -1 -1 5 256;
#X obj 251 140 nbx 5 14 -1e+37 1e+37 0 0 empty empty empty 0 -8 0 10
-262144 -1 -1 8 256;
#X obj 198 505 dac~;
#X msg 127 49 seed 49;
#X msg 262 47 seed 140;
#X obj 196 45 metro 350;
#X obj 194 274 oscsp2;
#X obj 194 15 r sound;
#X obj 224 448 r sound;
#X obj 196 473 *~ 1;
#X obj 359 183 s sound;
#X msg 366 140 1;
#X obj 205 252 *~;
#X obj 141 86 random 10;
#X obj 248 80 random 10;
#X obj 140 111 + 1;
#X obj 251 110 + 1;
#X connect 0 0 16 0;
#X connect 1 0 16 1;
#X connect 2 0 0 0;
#X connect 3 0 1 0;
#X connect 4 0 2 0;
#X connect 5 0 3 0;
#X connect 7 0 17 0;
#X connect 8 0 18 0;
#X connect 9 0 17 0;
#X connect 9 0 18 0;
#X connect 10 0 13 0;
#X connect 11 0 9 0;
#X connect 12 0 13 1;
#X connect 13 0 6 0;
#X connect 13 0 6 1;
#X connect 15 0 14 0;
#X connect 16 0 10 0;
#X connect 17 0 19 0;
#X connect 18 0 20 0;
#X connect 19 0 4 0;
#X connect 20 0 5 0;
